ply
format ascii 1.0
element vertex 202
property float x
property float y
property float z
element face 400
property list uchar int vertex_index
end_header
-4.0000000000000002e-01 0.0000000000000000e+00 0.0000000000000000e+00
-4.0000000000000002e-01 0.0000000000000000e+00 1.8666666429307729e-01
-4.0000000000000002e-01 1.1720896829766254e-02 1.8629832027103838e-01
-4.0000000000000002e-01 2.3395536634513832e-02 1.8519474189049628e-01
-4.0000000000000002e-01 3.4977844944568959e-02 1.8336028447114197e-01
-4.0000000000000002e-01 4.6422111680485219e-02 1.8080218777832577e-01
-4.0000000000000002e-01 5.7683171549844058e-02 1.7753054745101102e-01
-4.0000000000000002e-01 6.8716582294030021e-02 1.7355827515889935e-01
-4.0000000000000002e-01 7.9478800081521694e-02 1.6890104764596911e-01
-4.0000000000000002e-01 8.9927351355501464e-02 1.6357724486152897e-01
-4.0000000000000002e-01 1.0002100045757992e-01 1.5760787742295501e-01
-4.0000000000000002e-01 1.0971991236610082e-01 1.5101650369638273e-01
-4.0000000000000002e-01 1.1898580990677259e-01 1.4382913682259862e-01
-4.0000000000000002e-01 1.2778212481518814e-01 1.3607414205505797e-01
-4.0000000000000002e-01 1.3607414205505797e-01 1.2778212481518814e-01
-4.0000000000000002e-01 1.4382913682259862e-01 1.1898580990677261e-01
-4.0000000000000002e-01 1.5101650369638270e-01 1.0971991236610085e-01
-4.0000000000000002e-01 1.5760787742295501e-01 1.0002100045757990e-01
-4.0000000000000002e-01 1.6357724486152900e-01 8.9927351355501423e-02
-4.0000000000000002e-01 1.6890104764596911e-01 7.9478800081521694e-02
-4.0000000000000002e-01 1.7355827515889932e-01 6.8716582294030049e-02
-4.0000000000000002e-01 1.7753054745101102e-01 5.7683171549844071e-02
-4.0000000000000002e-01 1.8080218777832577e-01 4.6422111680485212e-02
-4.0000000000000002e-01 1.8336028447114197e-01 3.4977844944568987e-02
-4.0000000000000002e-01 1.8519474189049628e-01 2.3395536634513873e-02
-4.0000000000000002e-01 1.8629832027103838e-01 1.1720896829766281e-02
-4.0000000000000002e-01 1.8666666429307729e-01 1.1430036646701532e-17
-4.0000000000000002e-01 1.8629832027103838e-01 -1.1720896829766259e-02
-4.0000000000000002e-01 1.8519474189049628e-01 -2.3395536634513811e-02
-4.0000000000000002e-01 1.8336028447114197e-01 -3.4977844944568959e-02
-4.0000000000000002e-01 1.8080218777832577e-01 -4.6422111680485233e-02
-4.0000000000000002e-01 1.7753054745101104e-01 -5.7683171549844009e-02
-4.0000000000000002e-01 1.7355827515889935e-01 -6.8716582294029993e-02
-4.0000000000000002e-01 1.6890104764596908e-01 -7.9478800081521708e-02
-4.0000000000000002e-01 1.6357724486152897e-01 -8.9927351355501478e-02
-4.0000000000000002e-01 1.5760787742295501e-01 -1.0002100045757996e-01
-4.0000000000000002e-01 1.5101650369638273e-01 -1.0971991236610081e-01
-4.0000000000000002e-01 1.4382913682259862e-01 -1.1898580990677261e-01
-4.0000000000000002e-01 1.3607414205505794e-01 -1.2778212481518816e-01
-4.0000000000000002e-01 1.2778212481518819e-01 -1.3607414205505794e-01
-4.0000000000000002e-01 1.1898580990677263e-01 -1.4382913682259860e-01
-4.0000000000000002e-01 1.0971991236610085e-01 -1.5101650369638270e-01
-4.0000000000000002e-01 1.0002100045757999e-01 -1.5760787742295498e-01
-4.0000000000000002e-01 8.9927351355501436e-02 -1.6357724486152897e-01
-4.0000000000000002e-01 7.9478800081521736e-02 -1.6890104764596908e-01
-4.0000000000000002e-01 6.8716582294030062e-02 -1.7355827515889932e-01
-4.0000000000000002e-01 5.7683171549844078e-02 -1.7753054745101102e-01
-4.0000000000000002e-01 4.6422111680485302e-02 -1.8080218777832574e-01
-4.0000000000000002e-01 3.4977844944568959e-02 -1.8336028447114197e-01
-4.0000000000000002e-01 2.3395536634513884e-02 -1.8519474189049628e-01
-4.0000000000000002e-01 1.1720896829766292e-02 -1.8629832027103838e-01
-4.0000000000000002e-01 2.2860073293403064e-17 -1.8666666429307729e-01
-4.0000000000000002e-01 -1.1720896829766249e-02 -1.8629832027103838e-01
-4.0000000000000002e-01 -2.3395536634513835e-02 -1.8519474189049628e-01
-4.0000000000000002e-01 -3.4977844944568993e-02 -1.8336028447114197e-01
-4.0000000000000002e-01 -4.6422111680485177e-02 -1.8080218777832580e-01
-4.0000000000000002e-01 -5.7683171549844037e-02 -1.7753054745101104e-01
-4.0000000000000002e-01 -6.8716582294030021e-02 -1.7355827515889935e-01
-4.0000000000000002e-01 -7.9478800081521625e-02 -1.6890104764596914e-01
-4.0000000000000002e-01 -8.9927351355501464e-02 -1.6357724486152897e-01
-4.0000000000000002e-01 -1.0002100045757988e-01 -1.5760787742295504e-01
-4.0000000000000002e-01 -1.0971991236610074e-01 -1.5101650369638278e-01
-4.0000000000000002e-01 -1.1898580990677259e-01 -1.4382913682259862e-01
-4.0000000000000002e-01 -1.2778212481518811e-01 -1.3607414205505802e-01
-4.0000000000000002e-01 -1.3607414205505797e-01 -1.2778212481518814e-01
-4.0000000000000002e-01 -1.4382913682259862e-01 -1.1898580990677257e-01
-4.0000000000000002e-01 -1.5101650369638270e-01 -1.0971991236610085e-01
-4.0000000000000002e-01 -1.5760787742295507e-01 -1.0002100045757986e-01
-4.0000000000000002e-01 -1.6357724486152897e-01 -8.9927351355501450e-02
-4.0000000000000002e-01 -1.6890104764596917e-01 -7.9478800081521597e-02
-4.0000000000000002e-01 -1.7355827515889935e-01 -6.8716582294029993e-02
-4.0000000000000002e-01 -1.7753054745101102e-01 -5.7683171549844092e-02
-4.0000000000000002e-01 -1.8080218777832580e-01 -4.6422111680485156e-02
-4.0000000000000002e-01 -1.8336028447114197e-01 -3.4977844944568966e-02
-4.0000000000000002e-01 -1.8519474189049628e-01 -2.3395536634513891e-02
-4.0000000000000002e-01 -1.8629832027103838e-01 -1.1720896829766222e-02
-4.0000000000000002e-01 -1.8666666429307729e-01 -3.4290109940104593e-17
-4.0000000000000002e-01 -1.8629832027103838e-01 1.1720896829766153e-02
-4.0000000000000002e-01 -1.8519474189049628e-01 2.3395536634513825e-02
-4.0000000000000002e-01 -1.8336028447114197e-01 3.4977844944568903e-02
-4.0000000000000002e-01 -1.8080218777832577e-01 4.6422111680485247e-02
-4.0000000000000002e-01 -1.7753054745101104e-01 5.7683171549844030e-02
-4.0000000000000002e-01 -1.7355827515889938e-01 6.8716582294029924e-02
-4.0000000000000002e-01 -1.6890104764596917e-01 7.9478800081521542e-02
-4.0000000000000002e-01 -1.6357724486152894e-01 8.9927351355501534e-02
-4.0000000000000002e-01 -1.5760787742295501e-01 1.0002100045757994e-01
-4.0000000000000002e-01 -1.5101650369638273e-01 1.0971991236610078e-01
-4.0000000000000002e-01 -1.4382913682259868e-01 1.1898580990677253e-01
-4.0000000000000002e-01 -1.3607414205505808e-01 1.2778212481518803e-01
-4.0000000000000002e-01 -1.2778212481518819e-01 1.3607414205505791e-01
-4.0000000000000002e-01 -1.1898580990677259e-01 1.4382913682259862e-01
-4.0000000000000002e-01 -1.0971991236610086e-01 1.5101650369638270e-01
-4.0000000000000002e-01 -1.0002100045758000e-01 1.5760787742295496e-01
-4.0000000000000002e-01 -8.9927351355501603e-02 1.6357724486152889e-01
-4.0000000000000002e-01 -7.9478800081521764e-02 1.6890104764596908e-01
-4.0000000000000002e-01 -6.8716582294030007e-02 1.7355827515889935e-01
-4.0000000000000002e-01 -5.7683171549844099e-02 1.7753054745101102e-01
-4.0000000000000002e-01 -4.6422111680485323e-02 1.8080218777832574e-01
-4.0000000000000002e-01 -3.4977844944568980e-02 1.8336028447114197e-01
-4.0000000000000002e-01 -2.3395536634513901e-02 1.8519474189049628e-01
-4.0000000000000002e-01 -1.1720896829766233e-02 1.8629832027103838e-01
4.0000000000000002e-01 0.0000000000000000e+00 0.0000000000000000e+00
4.0000000000000002e-01 0.0000000000000000e+00 1.8666666429307729e-01
4.0000000000000002e-01 1.1720896829766254e-02 1.8629832027103838e-01
4.0000000000000002e-01 2.3395536634513832e-02 1.8519474189049628e-01
4.0000000000000002e-01 3.4977844944568959e-02 1.8336028447114197e-01
4.0000000000000002e-01 4.6422111680485219e-02 1.8080218777832577e-01
4.0000000000000002e-01 5.7683171549844058e-02 1.7753054745101102e-01
4.0000000000000002e-01 6.8716582294030021e-02 1.7355827515889935e-01
4.0000000000000002e-01 7.9478800081521694e-02 1.6890104764596911e-01
4.0000000000000002e-01 8.9927351355501464e-02 1.6357724486152897e-01
4.0000000000000002e-01 1.0002100045757992e-01 1.5760787742295501e-01
4.0000000000000002e-01 1.0971991236610082e-01 1.5101650369638273e-01
4.0000000000000002e-01 1.1898580990677259e-01 1.4382913682259862e-01
4.0000000000000002e-01 1.2778212481518814e-01 1.3607414205505797e-01
4.0000000000000002e-01 1.3607414205505797e-01 1.2778212481518814e-01
4.0000000000000002e-01 1.4382913682259862e-01 1.1898580990677261e-01
4.0000000000000002e-01 1.5101650369638270e-01 1.0971991236610085e-01
4.0000000000000002e-01 1.5760787742295501e-01 1.0002100045757990e-01
4.0000000000000002e-01 1.6357724486152900e-01 8.9927351355501423e-02
4.0000000000000002e-01 1.6890104764596911e-01 7.9478800081521694e-02
4.0000000000000002e-01 1.7355827515889932e-01 6.8716582294030049e-02
4.0000000000000002e-01 1.7753054745101102e-01 5.7683171549844071e-02
4.0000000000000002e-01 1.8080218777832577e-01 4.6422111680485212e-02
4.0000000000000002e-01 1.8336028447114197e-01 3.4977844944568987e-02
4.0000000000000002e-01 1.8519474189049628e-01 2.3395536634513873e-02
4.0000000000000002e-01 1.8629832027103838e-01 1.1720896829766281e-02
4.0000000000000002e-01 1.8666666429307729e-01 1.1430036646701532e-17
4.0000000000000002e-01 1.8629832027103838e-01 -1.1720896829766259e-02
4.0000000000000002e-01 1.8519474189049628e-01 -2.3395536634513811e-02
4.0000000000000002e-01 1.8336028447114197e-01 -3.4977844944568959e-02
4.0000000000000002e-01 1.8080218777832577e-01 -4.6422111680485233e-02
4.0000000000000002e-01 1.7753054745101104e-01 -5.7683171549844009e-02
4.0000000000000002e-01 1.7355827515889935e-01 -6.8716582294029993e-02
4.0000000000000002e-01 1.6890104764596908e-01 -7.9478800081521708e-02
4.0000000000000002e-01 1.6357724486152897e-01 -8.9927351355501478e-02
4.0000000000000002e-01 1.5760787742295501e-01 -1.0002100045757996e-01
4.0000000000000002e-01 1.5101650369638273e-01 -1.0971991236610081e-01
4.0000000000000002e-01 1.4382913682259862e-01 -1.1898580990677261e-01
4.0000000000000002e-01 1.3607414205505794e-01 -1.2778212481518816e-01
4.0000000000000002e-01 1.2778212481518819e-01 -1.3607414205505794e-01
4.0000000000000002e-01 1.1898580990677263e-01 -1.4382913682259860e-01
4.0000000000000002e-01 1.0971991236610085e-01 -1.5101650369638270e-01
4.0000000000000002e-01 1.0002100045757999e-01 -1.5760787742295498e-01
4.0000000000000002e-01 8.9927351355501436e-02 -1.6357724486152897e-01
4.0000000000000002e-01 7.9478800081521736e-02 -1.6890104764596908e-01
4.0000000000000002e-01 6.8716582294030062e-02 -1.7355827515889932e-01
4.0000000000000002e-01 5.7683171549844078e-02 -1.7753054745101102e-01
4.0000000000000002e-01 4.6422111680485302e-02 -1.8080218777832574e-01
4.0000000000000002e-01 3.4977844944568959e-02 -1.8336028447114197e-01
4.0000000000000002e-01 2.3395536634513884e-02 -1.8519474189049628e-01
4.0000000000000002e-01 1.1720896829766292e-02 -1.8629832027103838e-01
4.0000000000000002e-01 2.2860073293403064e-17 -1.8666666429307729e-01
4.0000000000000002e-01 -1.1720896829766249e-02 -1.8629832027103838e-01
4.0000000000000002e-01 -2.3395536634513835e-02 -1.8519474189049628e-01
4.0000000000000002e-01 -3.4977844944568993e-02 -1.8336028447114197e-01
4.0000000000000002e-01 -4.6422111680485177e-02 -1.8080218777832580e-01
4.0000000000000002e-01 -5.7683171549844037e-02 -1.7753054745101104e-01
4.0000000000000002e-01 -6.8716582294030021e-02 -1.7355827515889935e-01
4.0000000000000002e-01 -7.9478800081521625e-02 -1.6890104764596914e-01
4.0000000000000002e-01 -8.9927351355501464e-02 -1.6357724486152897e-01
4.0000000000000002e-01 -1.0002100045757988e-01 -1.5760787742295504e-01
4.0000000000000002e-01 -1.0971991236610074e-01 -1.5101650369638278e-01
4.0000000000000002e-01 -1.1898580990677259e-01 -1.4382913682259862e-01
4.0000000000000002e-01 -1.2778212481518811e-01 -1.3607414205505802e-01
4.0000000000000002e-01 -1.3607414205505797e-01 -1.2778212481518814e-01
4.0000000000000002e-01 -1.4382913682259862e-01 -1.1898580990677257e-01
4.0000000000000002e-01 -1.5101650369638270e-01 -1.0971991236610085e-01
4.0000000000000002e-01 -1.5760787742295507e-01 -1.0002100045757986e-01
4.0000000000000002e-01 -1.6357724486152897e-01 -8.9927351355501450e-02
4.0000000000000002e-01 -1.6890104764596917e-01 -7.9478800081521597e-02
4.0000000000000002e-01 -1.7355827515889935e-01 -6.8716582294029993e-02
4.0000000000000002e-01 -1.7753054745101102e-01 -5.7683171549844092e-02
4.0000000000000002e-01 -1.8080218777832580e-01 -4.6422111680485156e-02
4.0000000000000002e-01 -1.8336028447114197e-01 -3.4977844944568966e-02
4.0000000000000002e-01 -1.8519474189049628e-01 -2.3395536634513891e-02
4.0000000000000002e-01 -1.8629832027103838e-01 -1.1720896829766222e-02
4.0000000000000002e-01 -1.8666666429307729e-01 -3.4290109940104593e-17
4.0000000000000002e-01 -1.8629832027103838e-01 1.1720896829766153e-02
4.0000000000000002e-01 -1.8519474189049628e-01 2.3395536634513825e-02
4.0000000000000002e-01 -1.8336028447114197e-01 3.4977844944568903e-02
4.0000000000000002e-01 -1.8080218777832577e-01 4.6422111680485247e-02
4.0000000000000002e-01 -1.7753054745101104e-01 5.7683171549844030e-02
4.0000000000000002e-01 -1.7355827515889938e-01 6.8716582294029924e-02
4.0000000000000002e-01 -1.6890104764596917e-01 7.9478800081521542e-02
4.0000000000000002e-01 -1.6357724486152894e-01 8.9927351355501534e-02
4.0000000000000002e-01 -1.5760787742295501e-01 1.0002100045757994e-01
4.0000000000000002e-01 -1.5101650369638273e-01 1.0971991236610078e-01
4.0000000000000002e-01 -1.4382913682259868e-01 1.1898580990677253e-01
4.0000000000000002e-01 -1.3607414205505808e-01 1.2778212481518803e-01
4.0000000000000002e-01 -1.2778212481518819e-01 1.3607414205505791e-01
4.0000000000000002e-01 -1.1898580990677259e-01 1.4382913682259862e-01
4.0000000000000002e-01 -1.0971991236610086e-01 1.5101650369638270e-01
4.0000000000000002e-01 -1.0002100045758000e-01 1.5760787742295496e-01
4.0000000000000002e-01 -8.9927351355501603e-02 1.6357724486152889e-01
4.0000000000000002e-01 -7.9478800081521764e-02 1.6890104764596908e-01
4.0000000000000002e-01 -6.8716582294030007e-02 1.7355827515889935e-01
4.0000000000000002e-01 -5.7683171549844099e-02 1.7753054745101102e-01
4.0000000000000002e-01 -4.6422111680485323e-02 1.8080218777832574e-01
4.0000000000000002e-01 -3.4977844944568980e-02 1.8336028447114197e-01
4.0000000000000002e-01 -2.3395536634513901e-02 1.8519474189049628e-01
4.0000000000000002e-01 -1.1720896829766233e-02 1.8629832027103838e-01
3 1 0 2
3 2 0 3
3 3 0 4
3 4 0 5
3 5 0 6
3 6 0 7
3 7 0 8
3 8 0 9
3 9 0 10
3 10 0 11
3 11 0 12
3 12 0 13
3 13 0 14
3 14 0 15
3 15 0 16
3 16 0 17
3 17 0 18
3 18 0 19
3 19 0 20
3 20 0 21
3 21 0 22
3 22 0 23
3 23 0 24
3 24 0 25
3 25 0 26
3 26 0 27
3 27 0 28
3 28 0 29
3 29 0 30
3 30 0 31
3 31 0 32
3 32 0 33
3 33 0 34
3 34 0 35
3 35 0 36
3 36 0 37
3 37 0 38
3 38 0 39
3 39 0 40
3 40 0 41
3 41 0 42
3 42 0 43
3 43 0 44
3 44 0 45
3 45 0 46
3 46 0 47
3 47 0 48
3 48 0 49
3 49 0 50
3 50 0 51
3 51 0 52
3 52 0 53
3 53 0 54
3 54 0 55
3 55 0 56
3 56 0 57
3 57 0 58
3 58 0 59
3 59 0 60
3 60 0 61
3 61 0 62
3 62 0 63
3 63 0 64
3 64 0 65
3 65 0 66
3 66 0 67
3 67 0 68
3 68 0 69
3 69 0 70
3 70 0 71
3 71 0 72
3 72 0 73
3 73 0 74
3 74 0 75
3 75 0 76
3 76 0 77
3 77 0 78
3 78 0 79
3 79 0 80
3 80 0 81
3 81 0 82
3 82 0 83
3 83 0 84
3 84 0 85
3 85 0 86
3 86 0 87
3 87 0 88
3 88 0 89
3 89 0 90
3 90 0 91
3 91 0 92
3 92 0 93
3 93 0 94
3 94 0 95
3 95 0 96
3 96 0 97
3 97 0 98
3 98 0 99
3 99 0 100
3 100 0 1
3 103 101 102
3 104 101 103
3 105 101 104
3 106 101 105
3 107 101 106
3 108 101 107
3 109 101 108
3 110 101 109
3 111 101 110
3 112 101 111
3 113 101 112
3 114 101 113
3 115 101 114
3 116 101 115
3 117 101 116
3 118 101 117
3 119 101 118
3 120 101 119
3 121 101 120
3 122 101 121
3 123 101 122
3 124 101 123
3 125 101 124
3 126 101 125
3 127 101 126
3 128 101 127
3 129 101 128
3 130 101 129
3 131 101 130
3 132 101 131
3 133 101 132
3 134 101 133
3 135 101 134
3 136 101 135
3 137 101 136
3 138 101 137
3 139 101 138
3 140 101 139
3 141 101 140
3 142 101 141
3 143 101 142
3 144 101 143
3 145 101 144
3 146 101 145
3 147 101 146
3 148 101 147
3 149 101 148
3 150 101 149
3 151 101 150
3 152 101 151
3 153 101 152
3 154 101 153
3 155 101 154
3 156 101 155
3 157 101 156
3 158 101 157
3 159 101 158
3 160 101 159
3 161 101 160
3 162 101 161
3 163 101 162
3 164 101 163
3 165 101 164
3 166 101 165
3 167 101 166
3 168 101 167
3 169 101 168
3 170 101 169
3 171 101 170
3 172 101 171
3 173 101 172
3 174 101 173
3 175 101 174
3 176 101 175
3 177 101 176
3 178 101 177
3 179 101 178
3 180 101 179
3 181 101 180
3 182 101 181
3 183 101 182
3 184 101 183
3 185 101 184
3 186 101 185
3 187 101 186
3 188 101 187
3 189 101 188
3 190 101 189
3 191 101 190
3 192 101 191
3 193 101 192
3 194 101 193
3 195 101 194
3 196 101 195
3 197 101 196
3 198 101 197
3 199 101 198
3 200 101 199
3 201 101 200
3 102 101 201
3 1 2 102
3 2 3 103
3 3 4 104
3 4 5 105
3 5 6 106
3 6 7 107
3 7 8 108
3 8 9 109
3 9 10 110
3 10 11 111
3 11 12 112
3 12 13 113
3 13 14 114
3 14 15 115
3 15 16 116
3 16 17 117
3 17 18 118
3 18 19 119
3 19 20 120
3 20 21 121
3 21 22 122
3 22 23 123
3 23 24 124
3 24 25 125
3 25 26 126
3 26 27 127
3 27 28 128
3 28 29 129
3 29 30 130
3 30 31 131
3 31 32 132
3 32 33 133
3 33 34 134
3 34 35 135
3 35 36 136
3 36 37 137
3 37 38 138
3 38 39 139
3 39 40 140
3 40 41 141
3 41 42 142
3 42 43 143
3 43 44 144
3 44 45 145
3 45 46 146
3 46 47 147
3 47 48 148
3 48 49 149
3 49 50 150
3 50 51 151
3 51 52 152
3 52 53 153
3 53 54 154
3 54 55 155
3 55 56 156
3 56 57 157
3 57 58 158
3 58 59 159
3 59 60 160
3 60 61 161
3 61 62 162
3 62 63 163
3 63 64 164
3 64 65 165
3 65 66 166
3 66 67 167
3 67 68 168
3 68 69 169
3 69 70 170
3 70 71 171
3 71 72 172
3 72 73 173
3 73 74 174
3 74 75 175
3 75 76 176
3 76 77 177
3 77 78 178
3 78 79 179
3 79 80 180
3 80 81 181
3 81 82 182
3 82 83 183
3 83 84 184
3 84 85 185
3 85 86 186
3 86 87 187
3 87 88 188
3 88 89 189
3 89 90 190
3 90 91 191
3 91 92 192
3 92 93 193
3 93 94 194
3 94 95 195
3 95 96 196
3 96 97 197
3 97 98 198
3 98 99 199
3 99 100 200
3 100 1 201
3 103 102 2
3 104 103 3
3 105 104 4
3 106 105 5
3 107 106 6
3 108 107 7
3 109 108 8
3 110 109 9
3 111 110 10
3 112 111 11
3 113 112 12
3 114 113 13
3 115 114 14
3 116 115 15
3 117 116 16
3 118 117 17
3 119 118 18
3 120 119 19
3 121 120 20
3 122 121 21
3 123 122 22
3 124 123 23
3 125 124 24
3 126 125 25
3 127 126 26
3 128 127 27
3 129 128 28
3 130 129 29
3 131 130 30
3 132 131 31
3 133 132 32
3 134 133 33
3 135 134 34
3 136 135 35
3 137 136 36
3 138 137 37
3 139 138 38
3 140 139 39
3 141 140 40
3 142 141 41
3 143 142 42
3 144 143 43
3 145 144 44
3 146 145 45
3 147 146 46
3 148 147 47
3 149 148 48
3 150 149 49
3 151 150 50
3 152 151 51
3 153 152 52
3 154 153 53
3 155 154 54
3 156 155 55
3 157 156 56
3 158 157 57
3 159 158 58
3 160 159 59
3 161 160 60
3 162 161 61
3 163 162 62
3 164 163 63
3 165 164 64
3 166 165 65
3 167 166 66
3 168 167 67
3 169 168 68
3 170 169 69
3 171 170 70
3 172 171 71
3 173 172 72
3 174 173 73
3 175 174 74
3 176 175 75
3 177 176 76
3 178 177 77
3 179 178 78
3 180 179 79
3 181 180 80
3 182 181 81
3 183 182 82
3 184 183 83
3 185 184 84
3 186 185 85
3 187 186 86
3 188 187 87
3 189 188 88
3 190 189 89
3 191 190 90
3 192 191 91
3 193 192 92
3 194 193 93
3 195 194 94
3 196 195 95
3 197 196 96
3 198 197 97
3 199 198 98
3 200 199 99
3 201 200 100
3 102 201 1
